<mxfile host="app.diagrams.net" modified="2023-12-04T10:56:37.866Z" agent="Mozilla/5.0 (Windows NT 10.0; Win64; x64) AppleWebKit/537.36 (KHTML, like Gecko) Chrome/119.0.0.0 Safari/537.36 Edg/119.0.0.0" etag="__6uutTbrhuPLjPK9586" version="22.1.5" type="github">
  <diagram name="第 1 页" id="HqVkvYskfNYnTDdMrRLA">
    <mxGraphModel dx="2040" dy="631" grid="1" gridSize="10" guides="1" tooltips="1" connect="1" arrows="1" fold="1" page="1" pageScale="1" pageWidth="827" pageHeight="1169" math="0" shadow="0">
      <root>
        <mxCell id="0" />
        <mxCell id="1" parent="0" />
        <mxCell id="Hn--LBSwQNR10zAx2Buf-3" value="" style="rounded=0;whiteSpace=wrap;html=1;" vertex="1" parent="1">
          <mxGeometry x="60" y="10" width="450" height="290" as="geometry" />
        </mxCell>
        <mxCell id="Hn--LBSwQNR10zAx2Buf-4" value="" style="rounded=0;whiteSpace=wrap;html=1;" vertex="1" parent="1">
          <mxGeometry x="65" y="320" width="450" height="120" as="geometry" />
        </mxCell>
        <mxCell id="Hn--LBSwQNR10zAx2Buf-5" value="Server层" style="text;html=1;strokeColor=none;fillColor=none;align=center;verticalAlign=middle;whiteSpace=wrap;rounded=0;" vertex="1" parent="1">
          <mxGeometry x="70" y="10" width="60" height="30" as="geometry" />
        </mxCell>
        <mxCell id="Hn--LBSwQNR10zAx2Buf-6" value="存储引擎层" style="text;html=1;strokeColor=none;fillColor=none;align=center;verticalAlign=middle;whiteSpace=wrap;rounded=0;" vertex="1" parent="1">
          <mxGeometry x="80" y="320" width="80" height="30" as="geometry" />
        </mxCell>
        <mxCell id="Hn--LBSwQNR10zAx2Buf-47" style="edgeStyle=orthogonalEdgeStyle;rounded=0;orthogonalLoop=1;jettySize=auto;html=1;" edge="1" parent="1" source="Hn--LBSwQNR10zAx2Buf-7" target="Hn--LBSwQNR10zAx2Buf-37">
          <mxGeometry relative="1" as="geometry" />
        </mxCell>
        <mxCell id="Hn--LBSwQNR10zAx2Buf-7" value="连接器:与客户端建立连接，校验用户身份" style="rounded=0;whiteSpace=wrap;html=1;" vertex="1" parent="1">
          <mxGeometry x="80" y="42.5" width="120" height="55" as="geometry" />
        </mxCell>
        <mxCell id="Hn--LBSwQNR10zAx2Buf-40" style="edgeStyle=orthogonalEdgeStyle;rounded=0;orthogonalLoop=1;jettySize=auto;html=1;exitX=1;exitY=0.5;exitDx=0;exitDy=0;entryX=0;entryY=0.5;entryDx=0;entryDy=0;" edge="1" parent="1" source="Hn--LBSwQNR10zAx2Buf-8" target="Hn--LBSwQNR10zAx2Buf-7">
          <mxGeometry relative="1" as="geometry" />
        </mxCell>
        <mxCell id="Hn--LBSwQNR10zAx2Buf-8" value="客户端" style="rounded=0;whiteSpace=wrap;html=1;" vertex="1" parent="1">
          <mxGeometry x="-50" y="47.5" width="80" height="45" as="geometry" />
        </mxCell>
        <mxCell id="Hn--LBSwQNR10zAx2Buf-10" value="数据" style="shape=cylinder3;whiteSpace=wrap;html=1;boundedLbl=1;backgroundOutline=1;size=15;" vertex="1" parent="1">
          <mxGeometry x="362" y="350" width="62" height="60" as="geometry" />
        </mxCell>
        <mxCell id="Hn--LBSwQNR10zAx2Buf-11" value="存储引擎" style="shape=table;startSize=30;container=1;collapsible=0;childLayout=tableLayout;strokeColor=default;fontSize=11;" vertex="1" parent="1">
          <mxGeometry x="190" y="324" width="70" height="112" as="geometry" />
        </mxCell>
        <mxCell id="Hn--LBSwQNR10zAx2Buf-12" value="" style="shape=tableRow;horizontal=0;startSize=0;swimlaneHead=0;swimlaneBody=0;strokeColor=inherit;top=0;left=0;bottom=0;right=0;collapsible=0;dropTarget=0;fillColor=none;points=[[0,0.5],[1,0.5]];portConstraint=eastwest;fontSize=16;" vertex="1" parent="Hn--LBSwQNR10zAx2Buf-11">
          <mxGeometry y="30" width="70" height="30" as="geometry" />
        </mxCell>
        <mxCell id="Hn--LBSwQNR10zAx2Buf-13" value="Innodb" style="shape=partialRectangle;html=1;whiteSpace=wrap;connectable=0;strokeColor=inherit;overflow=hidden;fillColor=none;top=0;left=0;bottom=0;right=0;pointerEvents=1;fontSize=16;" vertex="1" parent="Hn--LBSwQNR10zAx2Buf-12">
          <mxGeometry width="70" height="30" as="geometry">
            <mxRectangle width="70" height="30" as="alternateBounds" />
          </mxGeometry>
        </mxCell>
        <mxCell id="Hn--LBSwQNR10zAx2Buf-16" value="" style="shape=tableRow;horizontal=0;startSize=0;swimlaneHead=0;swimlaneBody=0;strokeColor=inherit;top=0;left=0;bottom=0;right=0;collapsible=0;dropTarget=0;fillColor=none;points=[[0,0.5],[1,0.5]];portConstraint=eastwest;fontSize=16;" vertex="1" parent="Hn--LBSwQNR10zAx2Buf-11">
          <mxGeometry y="60" width="70" height="31" as="geometry" />
        </mxCell>
        <mxCell id="Hn--LBSwQNR10zAx2Buf-17" value="MyISAM" style="shape=partialRectangle;html=1;whiteSpace=wrap;connectable=0;strokeColor=inherit;overflow=hidden;fillColor=none;top=0;left=0;bottom=0;right=0;pointerEvents=1;fontSize=16;" vertex="1" parent="Hn--LBSwQNR10zAx2Buf-16">
          <mxGeometry width="70" height="31" as="geometry">
            <mxRectangle width="70" height="31" as="alternateBounds" />
          </mxGeometry>
        </mxCell>
        <mxCell id="Hn--LBSwQNR10zAx2Buf-20" value="" style="shape=tableRow;horizontal=0;startSize=0;swimlaneHead=0;swimlaneBody=0;strokeColor=inherit;top=0;left=0;bottom=0;right=0;collapsible=0;dropTarget=0;fillColor=none;points=[[0,0.5],[1,0.5]];portConstraint=eastwest;fontSize=16;" vertex="1" parent="Hn--LBSwQNR10zAx2Buf-11">
          <mxGeometry y="91" width="70" height="21" as="geometry" />
        </mxCell>
        <mxCell id="Hn--LBSwQNR10zAx2Buf-21" value="..." style="shape=partialRectangle;html=1;whiteSpace=wrap;connectable=0;strokeColor=inherit;overflow=hidden;fillColor=none;top=0;left=0;bottom=0;right=0;pointerEvents=1;fontSize=16;" vertex="1" parent="Hn--LBSwQNR10zAx2Buf-20">
          <mxGeometry width="70" height="21" as="geometry">
            <mxRectangle width="70" height="21" as="alternateBounds" />
          </mxGeometry>
        </mxCell>
        <mxCell id="Hn--LBSwQNR10zAx2Buf-39" value="" style="edgeStyle=orthogonalEdgeStyle;rounded=0;orthogonalLoop=1;jettySize=auto;html=1;" edge="1" parent="1" source="Hn--LBSwQNR10zAx2Buf-37" target="Hn--LBSwQNR10zAx2Buf-38">
          <mxGeometry relative="1" as="geometry" />
        </mxCell>
        <mxCell id="Hn--LBSwQNR10zAx2Buf-37" value="解析器：词法分析语法分析，判断是否满足SQL语法" style="rounded=0;whiteSpace=wrap;html=1;" vertex="1" parent="1">
          <mxGeometry x="220" y="50" width="160" height="40" as="geometry" />
        </mxCell>
        <mxCell id="Hn--LBSwQNR10zAx2Buf-45" style="edgeStyle=orthogonalEdgeStyle;rounded=0;orthogonalLoop=1;jettySize=auto;html=1;" edge="1" parent="1" source="Hn--LBSwQNR10zAx2Buf-38" target="Hn--LBSwQNR10zAx2Buf-42">
          <mxGeometry relative="1" as="geometry" />
        </mxCell>
        <mxCell id="Hn--LBSwQNR10zAx2Buf-38" value="预处理器：检查表/字段是否存在，将*替换为所有列" style="whiteSpace=wrap;html=1;rounded=0;" vertex="1" parent="1">
          <mxGeometry x="220" y="110" width="160" height="40" as="geometry" />
        </mxCell>
        <mxCell id="Hn--LBSwQNR10zAx2Buf-46" style="edgeStyle=orthogonalEdgeStyle;rounded=0;orthogonalLoop=1;jettySize=auto;html=1;" edge="1" parent="1" source="Hn--LBSwQNR10zAx2Buf-42" target="Hn--LBSwQNR10zAx2Buf-43">
          <mxGeometry relative="1" as="geometry" />
        </mxCell>
        <mxCell id="Hn--LBSwQNR10zAx2Buf-42" value="优化器：选择最优的执行计划" style="whiteSpace=wrap;html=1;rounded=0;" vertex="1" parent="1">
          <mxGeometry x="220" y="170" width="160" height="40" as="geometry" />
        </mxCell>
        <mxCell id="Hn--LBSwQNR10zAx2Buf-48" style="edgeStyle=orthogonalEdgeStyle;rounded=0;orthogonalLoop=1;jettySize=auto;html=1;entryX=0.5;entryY=1;entryDx=0;entryDy=0;" edge="1" parent="1" source="Hn--LBSwQNR10zAx2Buf-43" target="Hn--LBSwQNR10zAx2Buf-8">
          <mxGeometry relative="1" as="geometry" />
        </mxCell>
        <mxCell id="Hn--LBSwQNR10zAx2Buf-43" value="执行器：让存储引擎根据执行计划从B+树读取记录，判断是否满足条件，返回给客户端" style="whiteSpace=wrap;html=1;rounded=0;" vertex="1" parent="1">
          <mxGeometry x="220" y="230" width="160" height="50" as="geometry" />
        </mxCell>
        <mxCell id="Hn--LBSwQNR10zAx2Buf-49" style="edgeStyle=orthogonalEdgeStyle;rounded=0;orthogonalLoop=1;jettySize=auto;html=1;entryX=0.521;entryY=0;entryDx=0;entryDy=0;entryPerimeter=0;" edge="1" parent="1" source="Hn--LBSwQNR10zAx2Buf-43" target="Hn--LBSwQNR10zAx2Buf-4">
          <mxGeometry relative="1" as="geometry" />
        </mxCell>
      </root>
    </mxGraphModel>
  </diagram>
</mxfile>
